<?xml version="1.0" standalone="no"?>
<!DOCTYPE svg PUBLIC "-//W3C//DTD SVG 20010904//EN"
 "http://www.w3.org/TR/2001/REC-SVG-20010904/DTD/svg10.dtd">
<svg version="1.0" xmlns="http://www.w3.org/2000/svg"
 width="1280.000000pt" height="1108.000000pt" viewBox="0 0 1280.000000 1108.000000"
 preserveAspectRatio="xMidYMid meet">
<g transform="translate(0.000000,1108.000000) scale(0.100000,-0.100000)"
fill="#000000" stroke="none">
<path d="M8992 9418 c-46 -33 -82 -109 -82 -174 0 -42 5 -58 30 -89 17 -21 30
-42 30 -46 0 -5 18 -18 39 -29 34 -17 42 -27 55 -74 24 -81 70 -174 118 -238
97 -127 152 -189 201 -224 106 -76 121 -99 98 -156 -5 -13 -12 -35 -15 -50 -4
-18 -24 -39 -62 -65 -43 -29 -64 -52 -87 -95 -31 -62 -38 -65 -77 -43 -14 8
-36 14 -48 15 -13 0 -37 8 -53 17 -24 14 -33 15 -49 5 -11 -6 -29 -12 -41 -12
-12 0 -47 -11 -78 -25 -42 -19 -60 -33 -68 -55 -6 -17 -18 -30 -26 -30 -9 0
-52 18 -97 39 -93 45 -136 46 -182 3 -16 -15 -39 -25 -55 -25 -16 0 -91 26
-168 58 -77 31 -188 72 -248 90 -59 18 -203 67 -320 109 -121 43 -263 86 -332
100 -66 14 -169 36 -229 50 -137 32 -189 40 -511 78 -216 25 -518 50 -600 50
-11 0 -175 -5 -365 -11 -190 -5 -445 -10 -568 -11 -149 0 -284 -6 -405 -19
-100 -11 -200 -22 -222 -24 -51 -5 -282 -72 -317 -92 -14 -8 -34 -15 -43 -15
-9 0 -38 -7 -64 -16 -48 -15 -50 -15 -117 12 -87 35 -137 34 -222 -6 -79 -37
-91 -37 -148 -4 -64 38 -160 44 -232 15 -29 -12 -56 -21 -61 -21 -11 0 -131
81 -131 89 0 4 23 29 51 56 28 28 89 102 137 165 47 63 106 137 130 163 64 71
83 120 84 227 1 61 -3 94 -12 105 -54 64 -174 66 -405 7 -88 -23 -203 -58
-255 -78 -64 -24 -123 -39 -180 -45 -141 -14 -218 -47 -340 -144 -86 -69 -140
-130 -140 -158 0 -13 -11 -34 -25 -47 -22 -21 -25 -31 -23 -79 1 -38 -3 -64
-14 -81 -9 -14 -20 -41 -23 -62 -4 -20 -18 -47 -32 -60 -39 -36 -63 -92 -72
-167 -10 -77 -5 -115 15 -132 19 -15 18 -41 -3 -78 -17 -30 -17 -32 5 -73 13
-25 22 -61 22 -85 0 -57 19 -193 31 -224 13 -34 70 -60 144 -66 80 -7 90 -14
105 -70 25 -102 64 -145 155 -173 43 -14 54 -22 75 -61 14 -26 32 -54 40 -64
22 -27 96 -55 145 -55 24 0 46 -4 50 -10 7 -11 -11 -44 -42 -80 -12 -14 -31
-50 -42 -80 -20 -51 -67 -132 -134 -228 -16 -22 -46 -89 -67 -149 -54 -152
-112 -272 -166 -345 -60 -81 -86 -142 -109 -253 -10 -49 -24 -102 -31 -117 -8
-15 -14 -41 -14 -58 0 -38 -41 -81 -92 -97 -57 -17 -209 -123 -276 -193 -92
-95 -199 -229 -282 -355 -40 -60 -80 -121 -90 -135 -67 -98 -167 -283 -270
-500 -33 -69 -86 -173 -118 -233 -53 -97 -92 -195 -136 -347 -9 -30 -34 -118
-56 -194 -23 -77 -57 -181 -76 -230 -54 -142 -161 -596 -189 -806 -32 -231
-36 -312 -40 -695 -6 -570 13 -776 93 -1007 11 -31 25 -65 30 -75 11 -19 2
-73 -33 -198 -10 -36 -17 -99 -18 -159 l-1 -99 35 -29 c56 -48 75 -52 124 -24
44 26 88 77 105 120 16 43 52 35 139 -32 88 -68 179 -102 307 -115 175 -17
276 11 353 98 17 20 63 98 101 173 38 75 88 169 110 208 54 95 115 279 145
434 56 295 107 674 126 953 11 151 14 167 31 167 10 0 18 -5 18 -11 0 -6 11
-25 24 -42 44 -57 85 -152 111 -257 30 -122 58 -186 119 -267 43 -56 156 -257
156 -275 0 -5 13 -40 29 -77 51 -120 131 -228 302 -409 90 -96 188 -201 217
-235 99 -116 317 -321 383 -360 120 -71 241 -99 729 -167 316 -45 445 -51
1205 -55 641 -3 850 -11 1015 -35 36 -5 97 -12 135 -15 39 -4 97 -13 130 -20
163 -37 332 -36 495 4 61 16 142 24 285 31 110 5 247 16 305 25 58 9 148 20
200 25 233 21 614 91 679 125 15 7 54 21 87 29 185 46 224 59 298 104 153 91
386 358 511 587 21 39 76 128 123 199 47 70 104 163 127 205 23 42 70 124 105
184 34 59 68 129 75 155 28 100 72 207 86 210 21 3 62 -63 68 -111 4 -23 2
-90 -3 -150 -7 -80 -6 -122 4 -161 8 -36 10 -82 6 -137 -21 -268 -20 -308 12
-409 17 -52 42 -138 55 -190 14 -52 37 -115 50 -140 89 -164 139 -240 186
-284 39 -37 39 -65 1 -133 -38 -67 -38 -103 -2 -144 35 -39 93 -48 180 -25 67
17 169 65 218 102 17 13 38 24 47 24 17 0 57 -45 57 -66 0 -7 15 -29 34 -48
32 -35 35 -36 107 -36 93 0 140 21 198 86 51 57 83 122 107 214 30 119 53 140
158 140 140 0 235 81 251 212 6 48 4 65 -16 104 l-22 47 57 54 c60 57 115 135
134 192 19 53 34 258 27 346 -7 89 -35 340 -64 575 -11 85 -33 214 -49 285
-17 72 -33 150 -37 175 -11 75 -51 226 -109 410 -30 97 -66 221 -81 275 -15
55 -34 111 -42 123 -8 13 -23 47 -33 75 -52 146 -183 453 -210 492 -28 40 -50
87 -130 277 -67 157 -224 378 -418 584 -37 40 -82 65 -176 99 -26 10 -60 31
-75 49 -14 17 -43 47 -64 66 -158 144 -224 200 -307 262 -52 40 -111 84 -132
100 -32 24 -180 104 -279 149 -45 21 -55 43 -73 179 -9 63 -25 142 -35 175
-10 33 -31 114 -46 180 -55 239 -66 274 -98 337 -37 71 -87 206 -87 236 0 20
41 57 97 85 25 13 35 28 48 72 12 44 22 58 43 66 61 24 76 36 97 78 16 31 35
50 65 65 34 17 46 31 57 61 7 22 25 50 38 63 14 13 25 29 25 36 0 15 21 26 51
26 11 0 31 20 53 54 19 29 44 61 57 70 13 8 28 27 33 41 6 15 43 49 81 78 47
35 76 65 90 94 11 22 35 60 54 84 52 63 60 98 60 244 1 208 -42 347 -159 520
-26 39 -70 110 -98 158 -29 48 -80 120 -116 160 -35 40 -93 106 -128 147 -74
87 -174 166 -267 211 -37 17 -91 44 -121 59 -30 15 -99 42 -153 58 -54 17
-138 52 -185 78 l-87 47 -125 4 c-118 4 -127 3 -158 -19z"/>
</g>
</svg>
